<mxfile host="app.diagrams.net" modified="2023-01-27T10:48:58.724Z" agent="5.0 (Macintosh; Intel Mac OS X 10_15_7) AppleWebKit/537.36 (KHTML, like Gecko) Chrome/109.0.0.0 Safari/537.36" etag="hwSsY9gGnlfatBTsEf8O" version="15.0.3" type="github">
  <diagram id="FxpUn_NDscpaJwIJj3BL" name="eCommerce">
    <mxGraphModel dx="1426" dy="707" grid="0" gridSize="10" guides="1" tooltips="1" connect="1" arrows="1" fold="1" page="1" pageScale="1" pageWidth="850" pageHeight="1100" math="0" shadow="0">
      <root>
        <mxCell id="0" />
        <mxCell id="1" parent="0" />
        <mxCell id="KH6rO5Mlp55ysLEGZBc8-47" value="" style="group" parent="1" vertex="1" connectable="0">
          <mxGeometry x="108" y="195.09" width="1020" height="459.1054533844188" as="geometry" />
        </mxCell>
        <mxCell id="KH6rO5Mlp55ysLEGZBc8-30" value="" style="rounded=0;whiteSpace=wrap;html=1;" parent="KH6rO5Mlp55ysLEGZBc8-47" vertex="1">
          <mxGeometry x="132" y="-73" width="733" height="525" as="geometry" />
        </mxCell>
        <mxCell id="KH6rO5Mlp55ysLEGZBc8-23" value="" style="rounded=0;whiteSpace=wrap;html=1;dashed=1;" parent="KH6rO5Mlp55ysLEGZBc8-47" vertex="1">
          <mxGeometry x="544" y="15.900000000000006" width="210" height="326.25" as="geometry" />
        </mxCell>
        <mxCell id="KH6rO5Mlp55ysLEGZBc8-1" value="item-service" style="rounded=0;whiteSpace=wrap;html=1;fillColor=#e1d5e7;strokeColor=#9673a6;" parent="KH6rO5Mlp55ysLEGZBc8-47" vertex="1">
          <mxGeometry x="584" y="32.62775223499358" width="120" height="50.19157088122605" as="geometry" />
        </mxCell>
        <mxCell id="KH6rO5Mlp55ysLEGZBc8-2" value="DB" style="shape=cylinder3;whiteSpace=wrap;html=1;boundedLbl=1;backgroundOutline=1;size=8;" parent="KH6rO5Mlp55ysLEGZBc8-47" vertex="1">
          <mxGeometry x="689" y="32.62775223499358" width="29" height="29.27841634738186" as="geometry" />
        </mxCell>
        <mxCell id="KH6rO5Mlp55ysLEGZBc8-4" value="" style="rounded=0;whiteSpace=wrap;html=1;" parent="KH6rO5Mlp55ysLEGZBc8-47" vertex="1">
          <mxGeometry x="805" y="32.62775223499358" width="40" height="167.30523627075348" as="geometry" />
        </mxCell>
        <mxCell id="KH6rO5Mlp55ysLEGZBc8-8" style="edgeStyle=orthogonalEdgeStyle;rounded=0;orthogonalLoop=1;jettySize=auto;html=1;exitX=0.5;exitY=1;exitDx=0;exitDy=0;entryX=0;entryY=0.5;entryDx=0;entryDy=0;startArrow=classic;startFill=1;" parent="KH6rO5Mlp55ysLEGZBc8-47" source="KH6rO5Mlp55ysLEGZBc8-1" target="KH6rO5Mlp55ysLEGZBc8-4" edge="1">
          <mxGeometry relative="1" as="geometry" />
        </mxCell>
        <mxCell id="KH6rO5Mlp55ysLEGZBc8-5" value="" style="aspect=fixed;html=1;points=[];align=center;image;fontSize=12;image=img/lib/azure2/integration/Service_Bus.svg;" parent="KH6rO5Mlp55ysLEGZBc8-47" vertex="1">
          <mxGeometry x="810.78" y="45.173014048531286" width="28.44189016602809" height="25.095785440613025" as="geometry" />
        </mxCell>
        <mxCell id="KH6rO5Mlp55ysLEGZBc8-7" value="" style="edgeStyle=orthogonalEdgeStyle;rounded=0;orthogonalLoop=1;jettySize=auto;html=1;" parent="KH6rO5Mlp55ysLEGZBc8-47" source="KH6rO5Mlp55ysLEGZBc8-6" target="KH6rO5Mlp55ysLEGZBc8-4" edge="1">
          <mxGeometry relative="1" as="geometry" />
        </mxCell>
        <mxCell id="KH6rO5Mlp55ysLEGZBc8-6" value="inbound-service&lt;br&gt;&lt;br&gt;manual" style="rounded=0;whiteSpace=wrap;html=1;fillColor=#fff2cc;strokeColor=#d6b656;" parent="KH6rO5Mlp55ysLEGZBc8-47" vertex="1">
          <mxGeometry x="900" y="91.18458492975728" width="120" height="50.19157088122605" as="geometry" />
        </mxCell>
        <mxCell id="KH6rO5Mlp55ysLEGZBc8-40" style="edgeStyle=orthogonalEdgeStyle;rounded=0;orthogonalLoop=1;jettySize=auto;html=1;exitX=1;exitY=0.5;exitDx=0;exitDy=0;entryX=0;entryY=0.75;entryDx=0;entryDy=0;startArrow=classic;startFill=1;" parent="KH6rO5Mlp55ysLEGZBc8-47" source="KH6rO5Mlp55ysLEGZBc8-9" target="KH6rO5Mlp55ysLEGZBc8-1" edge="1">
          <mxGeometry relative="1" as="geometry">
            <Array as="points">
              <mxPoint x="529" y="143.0344925575101" />
              <mxPoint x="529" y="70.355196211096" />
            </Array>
          </mxGeometry>
        </mxCell>
        <mxCell id="KH6rO5Mlp55ysLEGZBc8-9" value="home-service" style="rounded=0;whiteSpace=wrap;html=1;" parent="KH6rO5Mlp55ysLEGZBc8-47" vertex="1">
          <mxGeometry x="217" y="117.95342273307782" width="120" height="50.19157088122605" as="geometry" />
        </mxCell>
        <mxCell id="KH6rO5Mlp55ysLEGZBc8-22" style="edgeStyle=orthogonalEdgeStyle;rounded=0;orthogonalLoop=1;jettySize=auto;html=1;exitX=0.25;exitY=0;exitDx=0;exitDy=0;entryX=0.25;entryY=1;entryDx=0;entryDy=0;startArrow=classic;startFill=1;" parent="KH6rO5Mlp55ysLEGZBc8-47" source="KH6rO5Mlp55ysLEGZBc8-10" target="KH6rO5Mlp55ysLEGZBc8-1" edge="1">
          <mxGeometry relative="1" as="geometry" />
        </mxCell>
        <mxCell id="KH6rO5Mlp55ysLEGZBc8-57" style="edgeStyle=orthogonalEdgeStyle;rounded=0;orthogonalLoop=1;jettySize=auto;html=1;exitX=0;exitY=0;exitDx=0;exitDy=0;startArrow=classic;startFill=1;" parent="KH6rO5Mlp55ysLEGZBc8-47" source="KH6rO5Mlp55ysLEGZBc8-10" target="KH6rO5Mlp55ysLEGZBc8-55" edge="1">
          <mxGeometry relative="1" as="geometry" />
        </mxCell>
        <mxCell id="KH6rO5Mlp55ysLEGZBc8-10" value="buy-service" style="rounded=0;whiteSpace=wrap;html=1;fillColor=#e1d5e7;strokeColor=#9673a6;" parent="KH6rO5Mlp55ysLEGZBc8-47" vertex="1">
          <mxGeometry x="584" y="166.4719412515964" width="120" height="50.19157088122605" as="geometry" />
        </mxCell>
        <mxCell id="KH6rO5Mlp55ysLEGZBc8-17" value="Wish List Screen" style="rounded=0;whiteSpace=wrap;html=1;fillColor=#fff2cc;strokeColor=#d6b656;" parent="KH6rO5Mlp55ysLEGZBc8-47" vertex="1">
          <mxGeometry y="5.909999999999997" width="120" height="50.19157088122605" as="geometry" />
        </mxCell>
        <mxCell id="KH6rO5Mlp55ysLEGZBc8-18" value="MyCart Screen" style="rounded=0;whiteSpace=wrap;html=1;fillColor=#fff2cc;strokeColor=#d6b656;" parent="KH6rO5Mlp55ysLEGZBc8-47" vertex="1">
          <mxGeometry y="71.91388250319281" width="120" height="50.19157088122605" as="geometry" />
        </mxCell>
        <mxCell id="KH6rO5Mlp55ysLEGZBc8-20" value="payment-service" style="rounded=0;whiteSpace=wrap;html=1;fillColor=#e1d5e7;strokeColor=#9673a6;" parent="KH6rO5Mlp55ysLEGZBc8-47" vertex="1">
          <mxGeometry x="584" y="258.48982120051085" width="120" height="50.19157088122605" as="geometry" />
        </mxCell>
        <mxCell id="KH6rO5Mlp55ysLEGZBc8-21" value="" style="edgeStyle=orthogonalEdgeStyle;rounded=0;orthogonalLoop=1;jettySize=auto;html=1;startArrow=classic;startFill=1;" parent="KH6rO5Mlp55ysLEGZBc8-47" source="KH6rO5Mlp55ysLEGZBc8-10" target="KH6rO5Mlp55ysLEGZBc8-20" edge="1">
          <mxGeometry relative="1" as="geometry" />
        </mxCell>
        <mxCell id="KH6rO5Mlp55ysLEGZBc8-49" style="edgeStyle=orthogonalEdgeStyle;rounded=0;orthogonalLoop=1;jettySize=auto;html=1;startArrow=classic;startFill=1;" parent="KH6rO5Mlp55ysLEGZBc8-47" source="KH6rO5Mlp55ysLEGZBc8-24" target="KH6rO5Mlp55ysLEGZBc8-48" edge="1">
          <mxGeometry relative="1" as="geometry" />
        </mxCell>
        <mxCell id="KH6rO5Mlp55ysLEGZBc8-24" value="" style="rounded=0;whiteSpace=wrap;html=1;rotation=-90;" parent="KH6rO5Mlp55ysLEGZBc8-47" vertex="1">
          <mxGeometry x="409" y="216.65877394636007" width="40" height="167.30523627075348" as="geometry" />
        </mxCell>
        <mxCell id="KH6rO5Mlp55ysLEGZBc8-26" style="edgeStyle=orthogonalEdgeStyle;rounded=0;orthogonalLoop=1;jettySize=auto;html=1;exitX=0;exitY=0.75;exitDx=0;exitDy=0;entryX=1;entryY=0.75;entryDx=0;entryDy=0;startArrow=classic;startFill=1;" parent="KH6rO5Mlp55ysLEGZBc8-47" source="KH6rO5Mlp55ysLEGZBc8-10" target="KH6rO5Mlp55ysLEGZBc8-24" edge="1">
          <mxGeometry relative="1" as="geometry">
            <Array as="points">
              <mxPoint x="560" y="203.91" />
              <mxPoint x="560" y="263.90999999999997" />
              <mxPoint x="471" y="263.90999999999997" />
            </Array>
          </mxGeometry>
        </mxCell>
        <mxCell id="KH6rO5Mlp55ysLEGZBc8-25" value="" style="aspect=fixed;html=1;points=[];align=center;image;fontSize=12;image=img/lib/azure2/integration/Service_Bus.svg;" parent="KH6rO5Mlp55ysLEGZBc8-47" vertex="1">
          <mxGeometry x="349" y="287.76349936143026" width="28.44189016602809" height="25.095785440613025" as="geometry" />
        </mxCell>
        <mxCell id="KH6rO5Mlp55ysLEGZBc8-36" style="edgeStyle=orthogonalEdgeStyle;rounded=0;orthogonalLoop=1;jettySize=auto;html=1;exitX=0.25;exitY=0;exitDx=0;exitDy=0;entryX=0;entryY=0.75;entryDx=0;entryDy=0;startArrow=classic;startFill=1;" parent="KH6rO5Mlp55ysLEGZBc8-47" source="KH6rO5Mlp55ysLEGZBc8-27" target="KH6rO5Mlp55ysLEGZBc8-24" edge="1">
          <mxGeometry relative="1" as="geometry" />
        </mxCell>
        <mxCell id="KH6rO5Mlp55ysLEGZBc8-27" value="logistic-service" style="rounded=0;whiteSpace=wrap;html=1;fillColor=#e1d5e7;strokeColor=#9673a6;" parent="KH6rO5Mlp55ysLEGZBc8-47" vertex="1">
          <mxGeometry x="427.5" y="360.91" width="142.5" height="50.19" as="geometry" />
        </mxCell>
        <mxCell id="KH6rO5Mlp55ysLEGZBc8-29" value="Analytics&lt;br&gt;and&lt;br&gt;Recommendation" style="rounded=0;whiteSpace=wrap;html=1;fillColor=#dae8fc;strokeColor=#6c8ebf;" parent="KH6rO5Mlp55ysLEGZBc8-47" vertex="1">
          <mxGeometry x="217" y="190.3577266922094" width="120" height="50.19157088122605" as="geometry" />
        </mxCell>
        <mxCell id="KH6rO5Mlp55ysLEGZBc8-34" style="edgeStyle=orthogonalEdgeStyle;rounded=0;orthogonalLoop=1;jettySize=auto;html=1;exitX=0.5;exitY=1;exitDx=0;exitDy=0;startArrow=classic;startFill=1;" parent="KH6rO5Mlp55ysLEGZBc8-47" source="KH6rO5Mlp55ysLEGZBc8-9" target="KH6rO5Mlp55ysLEGZBc8-29" edge="1">
          <mxGeometry relative="1" as="geometry" />
        </mxCell>
        <mxCell id="KH6rO5Mlp55ysLEGZBc8-37" style="edgeStyle=orthogonalEdgeStyle;rounded=0;orthogonalLoop=1;jettySize=auto;html=1;exitX=1;exitY=0.25;exitDx=0;exitDy=0;startArrow=classic;startFill=1;" parent="KH6rO5Mlp55ysLEGZBc8-47" source="KH6rO5Mlp55ysLEGZBc8-24" target="KH6rO5Mlp55ysLEGZBc8-29" edge="1">
          <mxGeometry relative="1" as="geometry" />
        </mxCell>
        <mxCell id="KH6rO5Mlp55ysLEGZBc8-41" value="Home Screen" style="rounded=0;whiteSpace=wrap;html=1;fillColor=#fff2cc;strokeColor=#d6b656;" parent="KH6rO5Mlp55ysLEGZBc8-47" vertex="1">
          <mxGeometry y="137.9138825031928" width="120" height="50.19157088122605" as="geometry" />
        </mxCell>
        <mxCell id="KH6rO5Mlp55ysLEGZBc8-42" value="reachability-service" style="rounded=0;whiteSpace=wrap;html=1;fillColor=#e1d5e7;strokeColor=#9673a6;" parent="KH6rO5Mlp55ysLEGZBc8-47" vertex="1">
          <mxGeometry x="405" y="153.91982120051082" width="120" height="50.19157088122605" as="geometry" />
        </mxCell>
        <mxCell id="KH6rO5Mlp55ysLEGZBc8-45" style="edgeStyle=orthogonalEdgeStyle;rounded=0;orthogonalLoop=1;jettySize=auto;html=1;exitX=1;exitY=0.75;exitDx=0;exitDy=0;startArrow=classic;startFill=1;" parent="KH6rO5Mlp55ysLEGZBc8-47" source="KH6rO5Mlp55ysLEGZBc8-9" target="KH6rO5Mlp55ysLEGZBc8-42" edge="1">
          <mxGeometry relative="1" as="geometry" />
        </mxCell>
        <mxCell id="KH6rO5Mlp55ysLEGZBc8-43" value="Track Screen" style="rounded=0;whiteSpace=wrap;html=1;fillColor=#fff2cc;strokeColor=#d6b656;" parent="KH6rO5Mlp55ysLEGZBc8-47" vertex="1">
          <mxGeometry y="347.9138825031928" width="120" height="50.19157088122605" as="geometry" />
        </mxCell>
        <mxCell id="KH6rO5Mlp55ysLEGZBc8-46" value="Buy Screen" style="rounded=0;whiteSpace=wrap;html=1;fillColor=#fff2cc;strokeColor=#d6b656;" parent="KH6rO5Mlp55ysLEGZBc8-47" vertex="1">
          <mxGeometry y="208.2938825031928" width="120" height="50.19157088122605" as="geometry" />
        </mxCell>
        <mxCell id="KH6rO5Mlp55ysLEGZBc8-44" style="edgeStyle=orthogonalEdgeStyle;rounded=0;orthogonalLoop=1;jettySize=auto;html=1;exitX=0;exitY=0.25;exitDx=0;exitDy=0;startArrow=classic;startFill=1;" parent="KH6rO5Mlp55ysLEGZBc8-47" source="KH6rO5Mlp55ysLEGZBc8-10" target="KH6rO5Mlp55ysLEGZBc8-42" edge="1">
          <mxGeometry relative="1" as="geometry" />
        </mxCell>
        <mxCell id="KH6rO5Mlp55ysLEGZBc8-48" value="notification-service" style="rounded=0;whiteSpace=wrap;html=1;fillColor=#e1d5e7;strokeColor=#9673a6;" parent="KH6rO5Mlp55ysLEGZBc8-47" vertex="1">
          <mxGeometry x="293" y="360.9094891443166" width="120" height="50.19157088122605" as="geometry" />
        </mxCell>
        <mxCell id="KH6rO5Mlp55ysLEGZBc8-52" value="DB" style="shape=cylinder3;whiteSpace=wrap;html=1;boundedLbl=1;backgroundOutline=1;size=8;" parent="KH6rO5Mlp55ysLEGZBc8-47" vertex="1">
          <mxGeometry x="394" y="360.9068071519795" width="29" height="29.278416347381864" as="geometry" />
        </mxCell>
        <mxCell id="KH6rO5Mlp55ysLEGZBc8-51" value="DB" style="shape=cylinder3;whiteSpace=wrap;html=1;boundedLbl=1;backgroundOutline=1;size=8;" parent="KH6rO5Mlp55ysLEGZBc8-47" vertex="1">
          <mxGeometry x="552" y="360.9068071519795" width="29" height="29.278416347381864" as="geometry" />
        </mxCell>
        <mxCell id="KH6rO5Mlp55ysLEGZBc8-50" value="DB" style="shape=cylinder3;whiteSpace=wrap;html=1;boundedLbl=1;backgroundOutline=1;size=8;" parent="KH6rO5Mlp55ysLEGZBc8-47" vertex="1">
          <mxGeometry x="500" y="187.37680715197953" width="29" height="29.278416347381864" as="geometry" />
        </mxCell>
        <mxCell id="KH6rO5Mlp55ysLEGZBc8-53" value="" style="shape=image;html=1;verticalAlign=top;verticalLabelPosition=bottom;labelBackgroundColor=#ffffff;imageAspect=0;aspect=fixed;image=https://cdn2.iconfinder.com/data/icons/tsgk-cctld-territories-icons-flags-pack-v---borderless/16/saga.png" parent="KH6rO5Mlp55ysLEGZBc8-47" vertex="1">
          <mxGeometry x="728" y="325.90999999999997" width="16" height="16" as="geometry" />
        </mxCell>
        <mxCell id="KH6rO5Mlp55ysLEGZBc8-54" value="" style="group" parent="KH6rO5Mlp55ysLEGZBc8-47" vertex="1" connectable="0">
          <mxGeometry x="377.44000000000005" y="36.906807151979564" width="134" height="50.19157088122605" as="geometry" />
        </mxCell>
        <mxCell id="KH6rO5Mlp55ysLEGZBc8-55" value="user-service" style="rounded=0;whiteSpace=wrap;html=1;fillColor=#e1d5e7;strokeColor=#9673a6;" parent="KH6rO5Mlp55ysLEGZBc8-54" vertex="1">
          <mxGeometry width="120" height="50.19157088122605" as="geometry" />
        </mxCell>
        <mxCell id="KH6rO5Mlp55ysLEGZBc8-56" value="DB" style="shape=cylinder3;whiteSpace=wrap;html=1;boundedLbl=1;backgroundOutline=1;size=8;" parent="KH6rO5Mlp55ysLEGZBc8-54" vertex="1">
          <mxGeometry x="105" width="29" height="29.278416347381864" as="geometry" />
        </mxCell>
        <mxCell id="KH6rO5Mlp55ysLEGZBc8-58" style="edgeStyle=orthogonalEdgeStyle;rounded=0;orthogonalLoop=1;jettySize=auto;html=1;exitX=0;exitY=0.75;exitDx=0;exitDy=0;entryX=1;entryY=0.25;entryDx=0;entryDy=0;startArrow=classic;startFill=1;" parent="KH6rO5Mlp55ysLEGZBc8-47" source="KH6rO5Mlp55ysLEGZBc8-55" target="KH6rO5Mlp55ysLEGZBc8-9" edge="1">
          <mxGeometry relative="1" as="geometry" />
        </mxCell>
        <mxCell id="KH6rO5Mlp55ysLEGZBc8-59" value="Order Screen" style="rounded=0;whiteSpace=wrap;html=1;fillColor=#fff2cc;strokeColor=#d6b656;" parent="KH6rO5Mlp55ysLEGZBc8-47" vertex="1">
          <mxGeometry y="277.9138825031928" width="120" height="50.19157088122605" as="geometry" />
        </mxCell>
        <mxCell id="KH6rO5Mlp55ysLEGZBc8-61" value="Item Screen" style="rounded=0;whiteSpace=wrap;html=1;fillColor=#fff2cc;strokeColor=#d6b656;" parent="KH6rO5Mlp55ysLEGZBc8-47" vertex="1">
          <mxGeometry x="3" y="408.9138825031928" width="120" height="50.19157088122605" as="geometry" />
        </mxCell>
        <mxCell id="KH6rO5Mlp55ysLEGZBc8-11" value="cart-service" style="rounded=0;whiteSpace=wrap;html=1;fillColor=#e1d5e7;strokeColor=#9673a6;" parent="1" vertex="1">
          <mxGeometry x="485.72" y="160.79680715197958" width="120" height="50.19157088122605" as="geometry" />
        </mxCell>
        <mxCell id="KH6rO5Mlp55ysLEGZBc8-33" value="DB" style="shape=cylinder3;whiteSpace=wrap;html=1;boundedLbl=1;backgroundOutline=1;size=8;" parent="1" vertex="1">
          <mxGeometry x="584.72" y="160.79680715197958" width="29" height="29.27841634738186" as="geometry" />
        </mxCell>
        <mxCell id="KH6rO5Mlp55ysLEGZBc8-32" value="" style="group" parent="1" vertex="1" connectable="0">
          <mxGeometry x="328.72" y="160.79680715197958" width="134" height="50.19157088122605" as="geometry" />
        </mxCell>
        <mxCell id="KH6rO5Mlp55ysLEGZBc8-15" value="wishlist-service" style="rounded=0;whiteSpace=wrap;html=1;fillColor=#e1d5e7;strokeColor=#9673a6;" parent="KH6rO5Mlp55ysLEGZBc8-32" vertex="1">
          <mxGeometry width="120" height="50.19157088122605" as="geometry" />
        </mxCell>
        <mxCell id="KH6rO5Mlp55ysLEGZBc8-31" value="DB" style="shape=cylinder3;whiteSpace=wrap;html=1;boundedLbl=1;backgroundOutline=1;size=8;" parent="KH6rO5Mlp55ysLEGZBc8-32" vertex="1">
          <mxGeometry x="105" width="29" height="29.278416347381864" as="geometry" />
        </mxCell>
        <mxCell id="KH6rO5Mlp55ysLEGZBc8-60" value="Profile Screen" style="rounded=0;whiteSpace=wrap;html=1;fillColor=#fff2cc;strokeColor=#d6b656;" parent="1" vertex="1">
          <mxGeometry x="108" y="132" width="120" height="50.19157088122605" as="geometry" />
        </mxCell>
        <mxCell id="KH6rO5Mlp55ysLEGZBc8-62" value="Notification service&lt;br&gt;order-service might be - updating&amp;nbsp;" style="text;html=1;align=center;verticalAlign=middle;resizable=0;points=[];autosize=1;strokeColor=none;fillColor=none;" parent="1" vertex="1">
          <mxGeometry x="980" y="73" width="197" height="41" as="geometry" />
        </mxCell>
        <mxCell id="lBUJ1V-3ExIptCtezQlb-4" value="" style="edgeStyle=orthogonalEdgeStyle;rounded=0;orthogonalLoop=1;jettySize=auto;html=1;" edge="1" parent="1" source="lBUJ1V-3ExIptCtezQlb-1" target="lBUJ1V-3ExIptCtezQlb-3">
          <mxGeometry relative="1" as="geometry" />
        </mxCell>
        <mxCell id="lBUJ1V-3ExIptCtezQlb-1" value="Catalog" style="rounded=0;whiteSpace=wrap;html=1;fillColor=#dae8fc;strokeColor=#6c8ebf;" vertex="1" parent="1">
          <mxGeometry x="685" y="860" width="71" height="88" as="geometry" />
        </mxCell>
        <mxCell id="lBUJ1V-3ExIptCtezQlb-3" value="NoSql" style="shape=cylinder3;whiteSpace=wrap;html=1;boundedLbl=1;backgroundOutline=1;size=15;fillColor=#ffe6cc;strokeColor=#d79b00;" vertex="1" parent="1">
          <mxGeometry x="844" y="864" width="60" height="80" as="geometry" />
        </mxCell>
      </root>
    </mxGraphModel>
  </diagram>
</mxfile>
